<svg width="20" height="20" viewBox="0 0 20 20" fill="none" xmlns="http://www.w3.org/2000/svg">
<path d="M4.82142 2.14282C4.11102 2.14282 3.42972 2.42503 2.92739 2.92736C2.42506 3.42969 2.14285 4.11099 2.14285 4.82139V9.28568H11.4286V2.14282H4.82142ZM11.4286 10.3571H2.14285V15.1785C2.14285 15.8889 2.42506 16.5702 2.92739 17.0726C3.42972 17.5749 4.11102 17.8571 4.82142 17.8571H11.4286V10.3571ZM15.1786 17.8571H12.5V12.8571H17.8571V15.1785C17.8571 15.8889 17.5749 16.5702 17.0726 17.0726C16.5703 17.5749 15.889 17.8571 15.1786 17.8571ZM17.8571 11.7857H12.5V8.21425H17.8571V11.7857ZM12.5 2.14282V7.14282H17.8571V4.82139C17.8571 4.11099 17.5749 3.42969 17.0726 2.92736C16.5703 2.42503 15.889 2.14282 15.1786 2.14282H12.5Z" fill="white"/>
</svg>
