<svg width="36" height="35" viewBox="0 0 36 35" fill="none" xmlns="http://www.w3.org/2000/svg">
<g id="drag-and-drop 1" clip-path="url(#clip0_83_12156)">
<g id="Group">
<path id="Vector" d="M23.8332 18.9583L33.989 24.882L29.6534 26.1216L32.7523 31.4898L30.2265 32.9481L27.1275 27.5814L23.8857 30.7168L23.8332 18.9583ZM20.9165 8.74996H23.8332V11.6666H31.1248C31.5116 11.6666 31.8825 11.8203 32.156 12.0938C32.4295 12.3673 32.5832 12.7382 32.5832 13.125V18.9583H29.6665V14.5833H15.0832V29.1666H20.9165V32.0833H13.6248C13.2381 32.0833 12.8671 31.9296 12.5936 31.6562C12.3201 31.3827 12.1665 31.0117 12.1665 30.625V23.3333H9.24984V20.4166H12.1665V13.125C12.1665 12.7382 12.3201 12.3673 12.5936 12.0938C12.8671 11.8203 13.2381 11.6666 13.6248 11.6666H20.9165V8.74996ZM6.33317 20.4166V23.3333H3.4165V20.4166H6.33317ZM6.33317 14.5833V17.5H3.4165V14.5833H6.33317ZM6.33317 8.74996V11.6666H3.4165V8.74996H6.33317ZM6.33317 2.91663V5.83329H3.4165V2.91663H6.33317ZM12.1665 2.91663V5.83329H9.24984V2.91663H12.1665ZM17.9998 2.91663V5.83329H15.0832V2.91663H17.9998ZM23.8332 2.91663V5.83329H20.9165V2.91663H23.8332Z" fill="#616161"/>
</g>
</g>
<defs>
<clipPath id="clip0_83_12156">
<rect width="35" height="35" fill="white" transform="translate(0.5)"/>
</clipPath>
</defs>
</svg>
