<svg width="18" height="18" viewBox="0 0 18 18" fill="none" xmlns="http://www.w3.org/2000/svg">
<g clip-path="url(#clip0_7_3494)">
<path d="M16.48 9.1875C16.48 8.6025 16.4304 8.04 16.3383 7.5H9V10.695H13.1933C13.0092 11.7225 12.4567 12.5925 11.6279 13.1775V15.255H14.1567C15.63 13.815 16.48 11.7 16.48 9.1875Z" fill="#222222"/>
<path d="M9.00002 17.25C11.1038 17.25 12.8675 16.515 14.1567 15.255L11.6279 13.1775C10.9338 13.6725 10.0484 13.9725 9.00002 13.9725C6.97419 13.9725 5.25294 12.525 4.63669 10.575H2.04419V12.705C3.32627 15.3975 5.95419 17.25 9.00002 17.25Z" fill="#222222"/>
<path d="M4.63659 10.5675C4.48075 10.0725 4.38867 9.54749 4.38867 8.99999C4.38867 8.45249 4.48075 7.92749 4.63659 7.43249V5.30249H2.04409C1.51284 6.41249 1.20825 7.66499 1.20825 8.99999C1.20825 10.335 1.51284 11.5875 2.04409 12.6975L4.06284 11.0325L4.63659 10.5675Z" fill="#222222"/>
<path d="M9.00002 4.035C10.1475 4.035 11.1675 4.455 11.9821 5.265L14.2134 2.9025C12.8604 1.5675 11.1038 0.75 9.00002 0.75C5.95419 0.75 3.32627 2.6025 2.04419 5.3025L4.63669 7.4325C5.25294 5.4825 6.97419 4.035 9.00002 4.035Z" fill="#222222"/>
</g>
<defs>
<clipPath id="clip0_7_3494">
<rect width="17" height="18" fill="white" transform="translate(0.5)"/>
</clipPath>
</defs>
</svg>
