<svg width="18" height="18" viewBox="0 0 18 18" fill="none" xmlns="http://www.w3.org/2000/svg">
<path id="Vector" d="M9 0.5C4.30538 0.5 0.5 3.75144 0.5 7.76282C0.5 10.3562 2.0913 12.6342 4.48438 13.9167C4.35442 14.403 3.64745 17.0468 3.61966 17.255C3.61966 17.255 3.6025 17.4109 3.69567 17.4702C3.72685 17.4872 3.7609 17.4972 3.79575 17.4995C3.83061 17.5018 3.86552 17.4963 3.89837 17.4835C4.16644 17.4427 7.00413 15.286 7.49452 14.9149C7.99333 14.99 8.4964 15.027 9 15.0256C13.6946 15.0256 17.5 11.7742 17.5 7.76282C17.5 3.75144 13.6946 0.5 9 0.5ZM4.79332 6.63531C4.78269 7.66273 4.80149 8.7433 4.78596 9.75478C4.78106 10.0781 4.60942 10.1746 4.37731 10.2667C4.35108 10.2768 4.32284 10.2789 4.29558 10.2729C4.02995 10.2162 3.81827 10.1135 3.81173 9.75567C3.79293 8.74507 3.81745 7.66273 3.80437 6.63531C3.57962 6.62557 3.25923 6.64505 3.05082 6.63531C2.76149 6.61494 2.56043 6.41566 2.57269 6.11894C2.58495 5.82223 2.73125 5.60877 3.05572 5.60346C3.82236 5.59106 4.77207 5.59106 5.5387 5.60346C5.86562 5.60877 6.01111 5.82312 6.02091 6.11894C6.03072 6.41477 5.83293 6.61494 5.54442 6.63531C5.33846 6.64505 5.01889 6.62557 4.79332 6.63531ZM8.91255 10.218C8.81451 10.2664 8.70805 10.2914 8.60034 10.2915C8.39601 10.2915 8.2399 10.203 8.19168 10.0568L7.94649 9.36773H6.45409L6.20889 10.0568C6.16149 10.2012 6.00538 10.2915 5.80024 10.2915C5.69278 10.2915 5.58657 10.2664 5.48885 10.218C5.35317 10.1507 5.22322 9.96469 5.37197 9.46338L6.54808 6.11717C6.5974 5.96978 6.68574 5.84142 6.80204 5.74815C6.91834 5.65489 7.05743 5.60086 7.20192 5.59283C7.3463 5.60172 7.48513 5.65618 7.60131 5.74951C7.71749 5.84283 7.80594 5.97094 7.85577 6.11806L9.02779 9.4625C9.17736 9.96469 9.0474 10.1542 8.91255 10.218ZM11.3906 10.218H9.81731C9.69546 10.2206 9.57762 10.1708 9.48955 10.0796C9.40148 9.98827 9.35036 9.8629 9.34736 9.73087V6.12426C9.35258 5.98417 9.40761 5.85171 9.50092 5.75459C9.59422 5.65748 9.71858 5.60324 9.84796 5.60324C9.97733 5.60324 10.1017 5.65748 10.195 5.75459C10.2883 5.85171 10.3433 5.98417 10.3486 6.12426V9.24638H11.3906C11.4519 9.24238 11.5134 9.252 11.5711 9.27467C11.6289 9.29734 11.6817 9.33257 11.7264 9.3782C11.7712 9.42383 11.8068 9.47889 11.8312 9.54C11.8555 9.6011 11.8681 9.66696 11.8681 9.73353C11.8681 9.80009 11.8555 9.86595 11.8312 9.92706C11.8068 9.98816 11.7712 10.0432 11.7264 10.0889C11.6817 10.1345 11.6289 10.1697 11.5711 10.1924C11.5134 10.215 11.4519 10.2247 11.3906 10.2207V10.218ZM15.232 9.81767C15.2192 9.9225 15.1779 10.0208 15.1133 10.1001C15.0487 10.1793 14.9637 10.2358 14.8693 10.2625C14.7749 10.2891 14.6753 10.2846 14.5832 10.2495C14.4911 10.2145 14.4108 10.1505 14.3525 10.0657L13.2026 8.41559L13.0326 8.59982V9.75921C13.0326 9.90015 12.9809 10.0353 12.889 10.135C12.797 10.2346 12.6723 10.2906 12.5422 10.2906C12.4122 10.2906 12.2874 10.2346 12.1955 10.135C12.1035 10.0353 12.0518 9.90015 12.0518 9.75921V6.1278C12.0518 5.98686 12.1035 5.85169 12.1955 5.75203C12.2874 5.65236 12.4122 5.59637 12.5422 5.59637C12.6723 5.59637 12.797 5.65236 12.889 5.75203C12.9809 5.85169 13.0326 5.98686 13.0326 6.1278V7.26682L14.4008 5.78414C14.4366 5.74577 14.4791 5.7155 14.5258 5.69513C14.5726 5.67475 14.6226 5.66466 14.6729 5.66546C14.7954 5.66894 14.9123 5.72132 15.0013 5.81254C15.0903 5.90375 15.1451 6.02738 15.1551 6.15969C15.1595 6.21872 15.1523 6.2781 15.1338 6.33385C15.1153 6.3896 15.0861 6.44044 15.0481 6.48297L13.9284 7.69374L15.1355 9.42707C15.2137 9.53949 15.2475 9.68092 15.2295 9.82032L15.232 9.81767Z" fill="#222222"/>
</svg>
