<svg width="20" height="20" viewBox="0 0 20 20" fill="none" xmlns="http://www.w3.org/2000/svg">
<g id="logout 1">
<path id="Vector" d="M15.4545 0.909058V1.81815H16.3636V5.45451H15.4545V4.54542H14.5454V2.72724H5.45453V17.2727H14.5454V15.4545H15.4545V14.5454H16.3636V18.1818H15.4545V19.0909H4.54544V18.1818H3.63635V1.81815H4.54544V0.909058H15.4545ZM11.8182 5.45451H13.6364V6.3636H14.5454V7.27269H15.4545V8.18178H16.3636V9.09088H17.2727V10.9091H16.3636V11.8181H15.4545V12.7272H14.5454V13.6363H13.6364V14.5454H11.8182V12.7272H12.7273V11.8181H13.6364V10.9091H7.27272V9.09088H13.6364V8.18178H12.7273V7.27269H11.8182V5.45451Z" fill="white"/>
</g>
</svg>
