<svg width="20" height="20" viewBox="0 0 20 20" fill="none" xmlns="http://www.w3.org/2000/svg">
<path d="M18.2812 4.375H16.25V16.25C16.25 16.5815 16.3817 16.8995 16.6161 17.1339C16.8505 17.3683 17.1685 17.5 17.5 17.5C17.8315 17.5 18.1495 17.3683 18.3839 17.1339C18.6183 16.8995 18.75 16.5815 18.75 16.25V4.84375C18.75 4.71943 18.7006 4.6002 18.6127 4.51229C18.5248 4.42439 18.4056 4.375 18.2812 4.375Z" fill="white"/>
<path d="M16.8418 18.6621C16.3131 18.5171 15.8466 18.2026 15.5139 17.7668C15.1812 17.3311 15.0006 16.7982 15 16.25V1.71875C15 1.59443 14.9506 1.4752 14.8627 1.38729C14.7748 1.29939 14.6556 1.25 14.5312 1.25H1.71875C1.59443 1.25 1.4752 1.29939 1.38729 1.38729C1.29939 1.4752 1.25 1.59443 1.25 1.71875V16.5625C1.25 17.1427 1.48047 17.6991 1.8907 18.1093C2.30094 18.5195 2.85734 18.75 3.4375 18.75H16.8301C16.8412 18.7504 16.852 18.7467 16.8605 18.7396C16.869 18.7324 16.8745 18.7224 16.8759 18.7114C16.8774 18.7004 16.8747 18.6893 16.8684 18.6801C16.8621 18.671 16.8526 18.6646 16.8418 18.6621ZM3.75 8.125V4.375H7.5V8.125H3.75ZM12.5 15.625H3.75V14.375H12.5V15.625ZM12.5 13.125H3.75V11.875H12.5V13.125ZM12.5 10.625H3.75V9.375H12.5V10.625ZM12.5 8.125H8.75V6.875H12.5V8.125ZM12.5 5.625H8.75V4.375H12.5V5.625Z" fill="white"/>
</svg>
