<svg width="20" height="20" viewBox="0 0 20 20" fill="none" xmlns="http://www.w3.org/2000/svg">
<g id="profile-circle-light 1">
<g id="Group">
<path id="Vector" d="M17.5 9.99997C17.5025 11.4889 17.0596 12.9446 16.2283 14.18C15.5428 15.2024 14.6159 16.0402 13.5296 16.6193C12.4433 17.1983 11.231 17.5008 10 17.5C8.76899 17.5008 7.55674 17.1983 6.47042 16.6193C5.38411 16.0402 4.4572 15.2024 3.77167 14.18C3.11894 13.207 2.70325 12.0946 2.55792 10.932C2.41259 9.76941 2.54166 8.58893 2.93479 7.48521C3.32792 6.38148 3.97416 5.38521 4.82172 4.57627C5.66928 3.76732 6.69458 3.16819 7.81542 2.82692C8.93627 2.48565 10.1215 2.41172 11.276 2.61106C12.4306 2.8104 13.5224 3.27747 14.4639 3.97482C15.4054 4.67217 16.1705 5.58041 16.6977 6.62672C17.225 7.67304 17.4997 8.82832 17.5 9.99997Z" stroke="white" stroke-width="1.5"/>
<path id="Vector_2" d="M11.0417 7.49992C11.0417 8.07492 10.575 8.54159 10 8.54159V9.79159C10.6078 9.79159 11.1907 9.55014 11.6205 9.12037C12.0502 8.6906 12.2917 8.10771 12.2917 7.49992H11.0417ZM10 8.54159C9.425 8.54159 8.95834 8.07492 8.95834 7.49992H7.70834C7.70834 8.10771 7.94978 8.6906 8.37955 9.12037C8.80932 9.55014 9.39222 9.79159 10 9.79159V8.54159ZM8.95834 7.49992C8.95834 6.92492 9.425 6.45825 10 6.45825V5.20825C9.39222 5.20825 8.80932 5.44969 8.37955 5.87947C7.94978 6.30924 7.70834 6.89213 7.70834 7.49992H8.95834ZM10 6.45825C10.575 6.45825 11.0417 6.92492 11.0417 7.49992H12.2917C12.2917 6.89213 12.0502 6.30924 11.6205 5.87947C11.1907 5.44969 10.6078 5.20825 10 5.20825V6.45825ZM4.305 14.8799L3.70584 14.7016L3.60834 15.0283L3.83084 15.2866L4.305 14.8799ZM15.695 14.8799L16.17 15.2874L16.3917 15.0291L16.2942 14.7016L15.695 14.8799ZM7.5 13.1249H12.5V11.8749H7.5V13.1249ZM7.5 11.8749C6.64759 11.875 5.81793 12.1501 5.13436 12.6593C4.45079 13.1686 3.9498 13.8848 3.70584 14.7016L4.90417 15.0583C5.07128 14.4996 5.41412 14.0098 5.88176 13.6615C6.3494 13.3132 6.91691 13.125 7.5 13.1249V11.8749ZM10 16.8749C9.00785 16.8761 8.02726 16.6619 7.12591 16.2473C6.22455 15.8326 5.42389 15.2274 4.77917 14.4733L3.83084 15.2866C4.59289 16.1774 5.53904 16.8932 6.60408 17.3831C7.66912 17.8729 8.82771 18.126 10 18.1249V16.8749ZM12.5 13.1249C13.725 13.1249 14.7625 13.9399 15.0958 15.0583L16.2942 14.7016C16.0502 13.8848 15.5492 13.1686 14.8656 12.6593C14.1821 12.1501 13.3524 11.875 12.5 11.8749V13.1249ZM15.2208 14.4733C14.5761 15.2274 13.7755 15.8326 12.8741 16.2473C11.9727 16.6619 10.9922 16.8761 10 16.8749V18.1249C11.1723 18.126 12.3309 17.8729 13.3959 17.3831C14.461 16.8932 15.408 16.1782 16.17 15.2874L15.2208 14.4733Z" fill="white"/>
</g>
</g>
</svg>
