<svg width="14" height="14" viewBox="0 0 14 14" fill="none" xmlns="http://www.w3.org/2000/svg">
<g id="reply 1">
<path id="Vector" fill-rule="evenodd" clip-rule="evenodd" d="M5.985 8.50523C6.04948 8.56531 6.10119 8.63776 6.13706 8.71826C6.17293 8.79876 6.19221 8.88566 6.19377 8.97377C6.19532 9.06189 6.17911 9.14942 6.14611 9.23113C6.1131 9.31284 6.06397 9.38707 6.00166 9.44939C5.93934 9.51171 5.86511 9.56083 5.7834 9.59384C5.70168 9.62685 5.61416 9.64305 5.52604 9.6415C5.43793 9.63995 5.35103 9.62066 5.27053 9.58479C5.19003 9.54892 5.11758 9.49721 5.0575 9.43273L2.21375 6.58898L1.75 6.12523L2.21375 5.66148L5.0575 2.81773C5.1819 2.70181 5.34644 2.6387 5.51646 2.6417C5.68647 2.6447 5.84868 2.71358 5.96892 2.83381C6.08916 2.95405 6.15803 3.11626 6.16103 3.28627C6.16403 3.45629 6.10092 3.62083 5.985 3.74523L4.26125 5.46898H8.092C9.19431 5.46898 10.2515 5.90687 11.0309 6.68632C11.8104 7.46577 12.2483 8.52293 12.2483 9.62523V12.469C12.2483 12.643 12.1791 12.8099 12.056 12.933C11.933 13.0561 11.766 13.1252 11.592 13.1252C11.418 13.1252 11.251 13.0561 11.128 12.933C11.0049 12.8099 10.9358 12.643 10.9358 12.469V9.62523C10.9358 8.87102 10.6361 8.1477 10.1028 7.6144C9.56953 7.08109 8.84621 6.78148 8.092 6.78148H4.26212L5.985 8.50523Z" fill="#C5D0E6"/>
</g>
</svg>
