<svg width="13" height="13" viewBox="0 0 13 13" fill="none" xmlns="http://www.w3.org/2000/svg">
<g id="user-plus">
<path id="Vector" d="M8.66669 11.375V10.2917C8.66669 9.71703 8.43841 9.16593 8.03209 8.7596C7.62576 8.35327 7.07466 8.125 6.50002 8.125H2.70835C2.13372 8.125 1.58262 8.35327 1.17629 8.7596C0.76996 9.16593 0.541687 9.71703 0.541687 10.2917V11.375" stroke="white" stroke-linecap="round" stroke-linejoin="round"/>
<path id="Vector_2" d="M4.60417 5.95833C5.80078 5.95833 6.77083 4.98828 6.77083 3.79167C6.77083 2.59505 5.80078 1.625 4.60417 1.625C3.40755 1.625 2.4375 2.59505 2.4375 3.79167C2.4375 4.98828 3.40755 5.95833 4.60417 5.95833Z" stroke="white" stroke-linecap="round" stroke-linejoin="round"/>
<path id="Vector_3" d="M10.8333 4.33337V7.58337" stroke="white" stroke-linecap="round" stroke-linejoin="round"/>
<path id="Vector_4" d="M12.4583 5.95837H9.20831" stroke="white" stroke-linecap="round" stroke-linejoin="round"/>
</g>
</svg>
