<svg width="18" height="18" viewBox="0 0 18 18" fill="none" xmlns="http://www.w3.org/2000/svg">
<g id="view-fill 1">
<path id="Vector" fill-rule="evenodd" clip-rule="evenodd" d="M15.5774 9C15.5774 8.73075 15.4319 8.5545 15.1409 8.2005C14.0759 6.9075 11.7269 4.5 8.99986 4.5C6.27286 4.5 3.92386 6.9075 2.85886 8.2005C2.56786 8.5545 2.42236 8.73075 2.42236 9C2.42236 9.26925 2.56786 9.4455 2.85886 9.7995C3.92386 11.0925 6.27286 13.5 8.99986 13.5C11.7269 13.5 14.0759 11.0925 15.1409 9.7995C15.4319 9.4455 15.5774 9.26925 15.5774 9ZM8.99986 11.25C9.5966 11.25 10.1689 11.0129 10.5909 10.591C11.0128 10.169 11.2499 9.59674 11.2499 9C11.2499 8.40326 11.0128 7.83097 10.5909 7.40901C10.1689 6.98705 9.5966 6.75 8.99986 6.75C8.40313 6.75 7.83083 6.98705 7.40887 7.40901C6.98692 7.83097 6.74986 8.40326 6.74986 9C6.74986 9.59674 6.98692 10.169 7.40887 10.591C7.83083 11.0129 8.40313 11.25 8.99986 11.25Z" fill="white"/>
</g>
</svg>
